# xmcd CD database file
#
# Track frame offsets:
#	150
#	14973
#	31497
#	42081
#
# Disc length: 761 seconds
#
# Revision: 0
# Processed by: cddbd v1.5.1PL0 Copyright (c) Steve Scherf et al.
# Submitted via: CDex 1.51
#
DISCID=2f02f704
DTITLE=Zebrahead - Rescue Me Single
DYEAR=1900
DGENRE=Rock
TTITLE0=Rescue Me
TTITLE1=Outcast
TTITLE2=Check(Live)
TTITLE3=Save Me(Demo)
EXTD=
EXTT0=
EXTT1=
EXTT2=
EXTT3=
PLAYORDER=
